+ filenameToUse=/home/horvathandras/vatic/vatic/public/videouploads/DJI_0040_vaskut_20190621_napos_kalaszos_T3.avi
+ filenameNoDot=DJI_0040_vaskut_20190621_napos_kalaszos_T3
+ FullUploadPath=/home/horvathandras/vatic/vatic/public/videouploads/DJI_0040_vaskut_20190621_napos_kalaszos_T3.avi
+ VideoDataDir=/home/horvathandras/vatic/vatic/videos
+ AvailableObjectTypes='PozitívROI NegatívROI Túrás ~Friss ~1-2Hetes ~Régebbi ~Egyéb1 ~Egyéb2 ~Egyéb3 Rágás ~Friss ~1-2Hetes ~Régebbi ~Egyéb1 ~Egyéb2 ~Egyéb3 Törés ~Friss ~1-2Hetes ~Régebbi ~Egyéb1 ~Egyéb2 ~Egyéb3 Taposás ~Friss ~1-2Hetes ~Régebbi ~Egyéb1 ~Egyéb2 ~Egyéb3 EgészségesNövény Egyéb1 Egyéb2 Egyéb3 Egyéb4 Egyéb5 Bizonytalan Művelőút Gktaposás Vetőhiba Széldöntés Jégkár Belvíz Aszály Erózió EgyszikűGyom KétszikűGyom EgyébNövvédelmiPR'
++ dirname /home/horvathandras/vatic/vatic/vatic_publisher.sh
+ cd /home/horvathandras/vatic/vatic
+ touch /home/horvathandras/vatic/vatic/public/videouploads/DJI_0040_vaskut_20190621_napos_kalaszos_T3.avi
+ chmod 744 /home/horvathandras/vatic/vatic/public/videouploads/DJI_0040_vaskut_20190621_napos_kalaszos_T3.avi
+ mkdir /home/horvathandras/vatic/vatic/videos/DJI_0040_vaskut_20190621_napos_kalaszos_T3
+ turkic extract /home/horvathandras/vatic/vatic/public/videouploads/DJI_0040_vaskut_20190621_napos_kalaszos_T3.avi /home/horvathandras/vatic/vatic/videos/DJI_0040_vaskut_20190621_napos_kalaszos_T3 --no-resize
ffmpeg version 2.8.14-0ubuntu0.16.04.1 Copyright (c) 2000-2018 the FFmpeg developers
  built with gcc 5.4.0 (Ubuntu 5.4.0-6ubuntu1~16.04.9) 20160609
  configuration: --prefix=/usr --extra-version=0ubuntu0.16.04.1 --build-suffix=-ffmpeg --toolchain=hardened --libdir=/usr/lib/x86_64-linux-gnu --incdir=/usr/include/x86_64-linux-gnu --cc=cc --cxx=g++ --enable-gpl --enable-shared --disable-stripping --disable-decoder=libopenjpeg --disable-decoder=libschroedinger --enable-avresample --enable-avisynth --enable-gnutls --enable-ladspa --enable-libass --enable-libbluray --enable-libbs2b --enable-libcaca --enable-libcdio --enable-libflite --enable-libfontconfig --enable-libfreetype --enable-libfribidi --enable-libgme --enable-libgsm --enable-libmodplug --enable-libmp3lame --enable-libopenjpeg --enable-libopus --enable-libpulse --enable-librtmp --enable-libschroedinger --enable-libshine --enable-libsnappy --enable-libsoxr --enable-libspeex --enable-libssh --enable-libtheora --enable-libtwolame --enable-libvorbis --enable-libvpx --enable-libwavpack --enable-libwebp --enable-libx265 --enable-libxvid --enable-libzvbi --enable-openal --enable-opengl --enable-x11grab --enable-libdc1394 --enable-libiec61883 --enable-libzmq --enable-frei0r --enable-libx264 --enable-libopencv
  libavutil      54. 31.100 / 54. 31.100
  libavcodec     56. 60.100 / 56. 60.100
  libavformat    56. 40.101 / 56. 40.101
  libavdevice    56.  4.100 / 56.  4.100
  libavfilter     5. 40.101 /  5. 40.101
  libavresample   2.  1.  0 /  2.  1.  0
  libswscale      3.  1.101 /  3.  1.101
  libswresample   1.  2.101 /  1.  2.101
  libpostproc    53.  3.100 / 53.  3.100
Input #0, mov,mp4,m4a,3gp,3g2,mj2, from '/home/horvathandras/vatic/vatic/public/videouploads/DJI_0040_vaskut_20190621_napos_kalaszos_T3.avi':
  Metadata:
    major_brand     : qt  
    minor_version   : 537986816
    compatible_brands: qt  
    creation_time   : 2019-06-21 14:10:22
    location        : +46.089254+18.993218+30.200
    location-{    : +46.089254+18.993218+30.200
    comment         : DE=D-Cinelike, Mode=P, DSW=0001
  Duration: 00:00:11.94, start: 0.000000, bitrate: 101436 kb/s
    Stream #0:0(eng): Video: h264 (High) (avc1 / 0x31637661), yuv420p(tv, bt709), 4096x2160 [SAR 1:1 DAR 256:135], 101185 kb/s, 50 fps, 50 tbr, 50k tbn, 100 tbc (default)
    Metadata:
      creation_time   : 2019-06-21 14:10:22
      handler_name    : DJI.AVC
      encoder         : AVC encoder
    Stream #0:1(eng): Data: none (priv / 0x76697270), 225 kb/s
    Metadata:
      creation_time   : 2019-06-21 14:10:22
      handler_name    : DJI.Meta
Please use -b:a or -b:v, -b is ambiguous
[swscaler @ 0x896be0] deprecated pixel format used, make sure you did set range correctly
Output #0, image2, to '/tmp/pyvision-ffmpeg-901845084/%d.jpg':
  Metadata:
    major_brand     : qt  
    minor_version   : 537986816
    compatible_brands: qt  
    comment         : DE=D-Cinelike, Mode=P, DSW=0001
    location        : +46.089254+18.993218+30.200
    location-{    : +46.089254+18.993218+30.200
    encoder         : Lavf56.40.101
    Stream #0:0(eng): Video: mjpeg, yuvj420p(pc), 4096x2160 [SAR 1:1 DAR 256:135], q=2-31, 10000 kb/s, 50 fps, 50 tbn, 50 tbc (default)
    Metadata:
      creation_time   : 2019-06-21 14:10:22
      handler_name    : DJI.AVC
      encoder         : Lavc56.60.100 mjpeg
Stream mapping:
  Stream #0:0 -> #0:0 (h264 (native) -> mjpeg (native))
Press [q] to stop, [?] for help
frame=    2 fps=0.0 q=15.6 size=N/A time=00:00:00.04 bitrate=N/A    frame=    7 fps=5.7 q=24.8 size=N/A time=00:00:00.14 bitrate=N/A    frame=   12 fps=6.8 q=24.8 size=N/A time=00:00:00.24 bitrate=N/A    frame=   17 fps=7.5 q=24.8 size=N/A time=00:00:00.34 bitrate=N/A    frame=   22 fps=7.9 q=24.8 size=N/A time=00:00:00.44 bitrate=N/A    frame=   27 fps=8.2 q=24.8 size=N/A time=00:00:00.54 bitrate=N/A    frame=   32 fps=8.2 q=24.8 size=N/A time=00:00:00.64 bitrate=N/A    frame=   37 fps=8.4 q=24.8 size=N/A time=00:00:00.74 bitrate=N/A    frame=   42 fps=8.5 q=24.8 size=N/A time=00:00:00.84 bitrate=N/A    frame=   47 fps=8.7 q=24.8 size=N/A time=00:00:00.94 bitrate=N/A    frame=   52 fps=8.7 q=24.8 size=N/A time=00:00:01.04 bitrate=N/A    frame=   57 fps=8.8 q=24.8 size=N/A time=00:00:01.14 bitrate=N/A    frame=   62 fps=8.8 q=24.8 size=N/A time=00:00:01.24 bitrate=N/A    frame=   67 fps=8.9 q=24.8 size=N/A time=00:00:01.34 bitrate=N/A    frame=   72 fps=8.9 q=24.8 size=N/A time=00:00:01.44 bitrate=N/A    frame=   77 fps=9.0 q=24.8 size=N/A time=00:00:01.54 bitrate=N/A    frame=   82 fps=9.0 q=24.8 size=N/A time=00:00:01.64 bitrate=N/A    frame=   87 fps=9.1 q=24.8 size=N/A time=00:00:01.74 bitrate=N/A    frame=   92 fps=9.0 q=24.8 size=N/A time=00:00:01.84 bitrate=N/A    frame=   97 fps=9.1 q=24.8 size=N/A time=00:00:01.94 bitrate=N/A    frame=  102 fps=9.1 q=24.8 size=N/A time=00:00:02.04 bitrate=N/A    frame=  107 fps=9.1 q=24.8 size=N/A time=00:00:02.14 bitrate=N/A    frame=  112 fps=9.2 q=24.8 size=N/A time=00:00:02.24 bitrate=N/A    frame=  117 fps=9.2 q=24.8 size=N/A time=00:00:02.34 bitrate=N/A    frame=  122 fps=9.1 q=24.8 size=N/A time=00:00:02.44 bitrate=N/A    frame=  127 fps=9.2 q=24.8 size=N/A time=00:00:02.54 bitrate=N/A    frame=  132 fps=9.2 q=24.8 size=N/A time=00:00:02.64 bitrate=N/A    frame=  137 fps=9.2 q=24.8 size=N/A time=00:00:02.74 bitrate=N/A    frame=  142 fps=9.2 q=24.8 size=N/A time=00:00:02.84 bitrate=N/A    frame=  147 fps=9.2 q=24.8 size=N/A time=00:00:02.94 bitrate=N/A    frame=  152 fps=9.2 q=24.8 size=N/A time=00:00:03.04 bitrate=N/A    frame=  157 fps=9.2 q=24.8 size=N/A time=00:00:03.14 bitrate=N/A    frame=  162 fps=9.3 q=24.8 size=N/A time=00:00:03.24 bitrate=N/A    frame=  167 fps=9.3 q=24.8 size=N/A time=00:00:03.34 bitrate=N/A    frame=  172 fps=9.3 q=24.8 size=N/A time=00:00:03.44 bitrate=N/A    frame=  177 fps=9.3 q=24.8 size=N/A time=00:00:03.54 bitrate=N/A    frame=  182 fps=9.3 q=24.8 size=N/A time=00:00:03.64 bitrate=N/A    frame=  187 fps=9.3 q=24.8 size=N/A time=00:00:03.74 bitrate=N/A    frame=  192 fps=9.3 q=24.8 size=N/A time=00:00:03.84 bitrate=N/A    frame=  197 fps=9.3 q=24.8 size=N/A time=00:00:03.94 bitrate=N/A    frame=  202 fps=9.3 q=24.8 size=N/A time=00:00:04.04 bitrate=N/A    frame=  207 fps=9.3 q=24.8 size=N/A time=00:00:04.14 bitrate=N/A    frame=  212 fps=9.3 q=24.8 size=N/A time=00:00:04.24 bitrate=N/A    frame=  217 fps=9.3 q=24.8 size=N/A time=00:00:04.34 bitrate=N/A    frame=  222 fps=9.3 q=24.8 size=N/A time=00:00:04.44 bitrate=N/A    frame=  227 fps=9.3 q=24.8 size=N/A time=00:00:04.54 bitrate=N/A    frame=  232 fps=9.4 q=24.8 size=N/A time=00:00:04.64 bitrate=N/A    frame=  237 fps=9.4 q=24.8 size=N/A time=00:00:04.74 bitrate=N/A    frame=  242 fps=9.3 q=24.8 size=N/A time=00:00:04.84 bitrate=N/A    frame=  247 fps=9.4 q=24.8 size=N/A time=00:00:04.94 bitrate=N/A    frame=  252 fps=9.4 q=24.8 size=N/A time=00:00:05.04 bitrate=N/A    frame=  257 fps=9.4 q=24.8 size=N/A time=00:00:05.14 bitrate=N/A    frame=  262 fps=9.4 q=24.8 size=N/A time=00:00:05.24 bitrate=N/A    frame=  267 fps=9.4 q=24.8 size=N/A time=00:00:05.34 bitrate=N/A    frame=  272 fps=9.4 q=24.8 size=N/A time=00:00:05.44 bitrate=N/A    frame=  277 fps=9.4 q=24.8 size=N/A time=00:00:05.54 bitrate=N/A    frame=  282 fps=9.4 q=24.8 size=N/A time=00:00:05.64 bitrate=N/A    frame=  287 fps=9.4 q=24.8 size=N/A time=00:00:05.74 bitrate=N/A    frame=  292 fps=9.4 q=24.8 size=N/A time=00:00:05.84 bitrate=N/A    frame=  297 fps=9.4 q=24.8 size=N/A time=00:00:05.94 bitrate=N/A    frame=  302 fps=9.4 q=24.8 size=N/A time=00:00:06.04 bitrate=N/A    frame=  307 fps=9.4 q=24.8 size=N/A time=00:00:06.14 bitrate=N/A    frame=  312 fps=9.4 q=24.8 size=N/A time=00:00:06.24 bitrate=N/A    frame=  317 fps=9.4 q=24.8 size=N/A time=00:00:06.34 bitrate=N/A    frame=  322 fps=9.4 q=24.8 size=N/A time=00:00:06.44 bitrate=N/A    frame=  327 fps=9.4 q=24.8 size=N/A time=00:00:06.54 bitrate=N/A    frame=  332 fps=9.4 q=24.8 size=N/A time=00:00:06.64 bitrate=N/A    frame=  337 fps=9.4 q=24.8 size=N/A time=00:00:06.74 bitrate=N/A    frame=  342 fps=9.4 q=24.8 size=N/A time=00:00:06.84 bitrate=N/A    frame=  347 fps=9.4 q=24.8 size=N/A time=00:00:06.94 bitrate=N/A    frame=  352 fps=9.4 q=24.8 size=N/A time=00:00:07.04 bitrate=N/A    frame=  357 fps=9.4 q=24.8 size=N/A time=00:00:07.14 bitrate=N/A    frame=  362 fps=9.4 q=24.8 size=N/A time=00:00:07.24 bitrate=N/A    frame=  367 fps=9.4 q=24.8 size=N/A time=00:00:07.34 bitrate=N/A    frame=  372 fps=9.4 q=24.8 size=N/A time=00:00:07.44 bitrate=N/A    frame=  377 fps=9.4 q=24.8 size=N/A time=00:00:07.54 bitrate=N/A    frame=  382 fps=9.4 q=24.8 size=N/A time=00:00:07.64 bitrate=N/A    frame=  387 fps=9.4 q=24.8 size=N/A time=00:00:07.74 bitrate=N/A    frame=  392 fps=9.4 q=24.8 size=N/A time=00:00:07.84 bitrate=N/A    frame=  397 fps=9.4 q=24.8 size=N/A time=00:00:07.94 bitrate=N/A    frame=  402 fps=9.4 q=24.8 size=N/A time=00:00:08.04 bitrate=N/A    frame=  407 fps=9.4 q=24.8 size=N/A time=00:00:08.14 bitrate=N/A    frame=  412 fps=9.4 q=24.8 size=N/A time=00:00:08.24 bitrate=N/A    frame=  417 fps=9.5 q=24.8 size=N/A time=00:00:08.34 bitrate=N/A    frame=  422 fps=9.4 q=24.8 size=N/A time=00:00:08.44 bitrate=N/A    frame=  427 fps=9.4 q=24.8 size=N/A time=00:00:08.54 bitrate=N/A    frame=  432 fps=9.4 q=24.8 size=N/A time=00:00:08.64 bitrate=N/A    frame=  437 fps=9.5 q=24.8 size=N/A time=00:00:08.74 bitrate=N/A    frame=  442 fps=9.5 q=24.8 size=N/A time=00:00:08.84 bitrate=N/A    frame=  447 fps=9.5 q=24.8 size=N/A time=00:00:08.94 bitrate=N/A    frame=  452 fps=9.4 q=24.8 size=N/A time=00:00:09.04 bitrate=N/A    frame=  457 fps=9.5 q=24.8 size=N/A time=00:00:09.14 bitrate=N/A    frame=  462 fps=9.5 q=24.8 size=N/A time=00:00:09.24 bitrate=N/A    frame=  467 fps=9.5 q=24.8 size=N/A time=00:00:09.34 bitrate=N/A    frame=  472 fps=9.5 q=24.8 size=N/A time=00:00:09.44 bitrate=N/A    frame=  477 fps=9.5 q=24.8 size=N/A time=00:00:09.54 bitrate=N/A    frame=  482 fps=9.5 q=24.8 size=N/A time=00:00:09.64 bitrate=N/A    frame=  487 fps=9.5 q=24.8 size=N/A time=00:00:09.74 bitrate=N/A    frame=  492 fps=9.5 q=24.8 size=N/A time=00:00:09.84 bitrate=N/A    frame=  497 fps=9.5 q=24.8 size=N/A time=00:00:09.94 bitrate=N/A    frame=  502 fps=9.5 q=24.8 size=N/A time=00:00:10.04 bitrate=N/A    frame=  507 fps=9.5 q=24.8 size=N/A time=00:00:10.14 bitrate=N/A    frame=  512 fps=9.5 q=24.8 size=N/A time=00:00:10.24 bitrate=N/A    frame=  517 fps=9.5 q=24.8 size=N/A time=00:00:10.34 bitrate=N/A    frame=  522 fps=9.5 q=24.8 size=N/A time=00:00:10.44 bitrate=N/A    frame=  527 fps=9.5 q=24.8 size=N/A time=00:00:10.54 bitrate=N/A    frame=  532 fps=9.5 q=24.8 size=N/A time=00:00:10.64 bitrate=N/A    frame=  537 fps=9.5 q=24.8 size=N/A time=00:00:10.74 bitrate=N/A    frame=  542 fps=9.5 q=24.8 size=N/A time=00:00:10.84 bitrate=N/A    frame=  547 fps=9.5 q=24.8 size=N/A time=00:00:10.94 bitrate=N/A    frame=  552 fps=9.5 q=24.8 size=N/A time=00:00:11.04 bitrate=N/A    frame=  557 fps=9.5 q=24.8 size=N/A time=00:00:11.14 bitrate=N/A    frame=  562 fps=9.5 q=24.8 size=N/A time=00:00:11.24 bitrate=N/A    frame=  567 fps=9.5 q=24.8 size=N/A time=00:00:11.34 bitrate=N/A    frame=  572 fps=9.5 q=24.8 size=N/A time=00:00:11.44 bitrate=N/A    frame=  577 fps=9.5 q=24.8 size=N/A time=00:00:11.54 bitrate=N/A    frame=  582 fps=9.5 q=24.8 size=N/A time=00:00:11.64 bitrate=N/A    frame=  587 fps=9.5 q=24.8 size=N/A time=00:00:11.74 bitrate=N/A    frame=  592 fps=9.5 q=24.8 size=N/A time=00:00:11.84 bitrate=N/A    frame=  597 fps=9.5 q=24.8 size=N/A time=00:00:11.94 bitrate=N/A    frame=  597 fps=9.5 q=24.8 Lsize=N/A time=00:00:11.94 bitrate=N/A    
video:331908kB audio:0kB subtitle:0kB other streams:0kB global headers:0kB muxing overhead: unknown
+ turkic load DJI_0040_vaskut_20190621_napos_kalaszos_T3 /home/horvathandras/vatic/vatic/videos/DJI_0040_vaskut_20190621_napos_kalaszos_T3 $'Pozit\303\255vROI' $'Negat\303\255vROI' $'T\303\272r\303\241s' '~Friss' '~1-2Hetes' '~Régebbi' '~Egyéb1' '~Egyéb2' '~Egyéb3' $'R\303\241g\303\241s' '~Friss' '~1-2Hetes' '~Régebbi' '~Egyéb1' '~Egyéb2' '~Egyéb3' $'T\303\266r\303\251s' '~Friss' '~1-2Hetes' '~Régebbi' '~Egyéb1' '~Egyéb2' '~Egyéb3' $'Tapos\303\241s' '~Friss' '~1-2Hetes' '~Régebbi' '~Egyéb1' '~Egyéb2' '~Egyéb3' $'Eg\303\251szs\303\251gesN\303\266v\303\251ny' $'Egy\303\251b1' $'Egy\303\251b2' $'Egy\303\251b3' $'Egy\303\251b4' $'Egy\303\251b5' Bizonytalan $'M\305\261vel\305\221\303\272t' $'Gktapos\303\241s' $'Vet\305\221hiba' $'Sz\303\251ld\303\266nt\303\251s' $'J\303\251gk\303\241r' $'Belv\303\255z' $'Asz\303\241ly' $'Er\303\263zi\303\263' $'Egyszik\305\261Gyom' $'K\303\251tszik\305\261Gyom' $'Egy\303\251bN\303\266vv\303\251delmiPR' --offline --title '$filenameNoDot Video' --length 1000 --description 'vatic annotation'
+ turkic publish --offline
+ mkdir /home/horvathandras/vatic/vatic/public/videothumbnails/DJI_0040_vaskut_20190621_napos_kalaszos_T3
+ cp /home/horvathandras/vatic/vatic/videos/DJI_0040_vaskut_20190621_napos_kalaszos_T3/0/0/31.jpg /home/horvathandras/vatic/vatic/public/videothumbnails/DJI_0040_vaskut_20190621_napos_kalaszos_T3/thumb.jpg
